<svg width="104" height="41" viewBox="0 0 104 41" fill="none" xmlns="http://www.w3.org/2000/svg">
<path d="M8.71098 7.33081H32.006C32.8076 7.33081 33.4579 6.67419 33.4579 5.86465V1.46616C33.4579 0.656625 32.8083 0 32.006 0H1.45183C0.650206 0 0 0.656625 0 1.46616V32.322C0 33.1322 0.650206 33.7882 1.45183 33.7882H22.6236C22.9374 33.7882 23.2423 33.8906 23.4931 34.0801L31.1366 39.8555C32.0937 40.5786 33.4585 39.8887 33.4585 38.6814V14.6914C33.4585 13.8818 32.8083 13.2252 32.0067 13.2252H15.187C14.3854 13.2252 13.7352 13.8818 13.7352 14.6914V19.0899C13.7352 19.8994 14.3854 20.556 15.187 20.556H24.7476C25.5492 20.556 26.1994 21.2127 26.1994 22.0222V24.9912C26.1994 25.8007 25.5492 26.4573 24.7476 26.4573H8.71098C7.90935 26.4573 7.25915 25.8007 7.25915 24.9912V8.79697C7.25915 7.98744 7.90935 7.33081 8.71098 7.33081Z" fill="#6346FA"/>
<path d="M51.5597 22.3561C50.7519 23.8723 49.1086 24.8855 47.2689 24.8855C44.5796 24.8855 42.3808 22.6982 42.3808 20.0106C42.3808 17.3229 44.5796 15.1481 47.2689 15.1481C49.0961 15.1481 50.6994 16.163 51.5473 17.6253C50.7128 18.047 50.6461 18.0868 49.7183 18.5474C49.2295 17.704 48.3274 17.1638 47.2689 17.1638C45.678 17.1638 44.4071 18.4289 44.4071 20.0097C44.4071 21.5905 45.6789 22.8556 47.2689 22.8556C48.3283 22.8556 49.3885 22.3278 49.7725 21.4331H49.5601C49.1362 21.4331 48.1692 21.4455 47.6395 21.4455C47.3889 21.4455 47.2698 21.4455 47.2698 21.4331V19.6941C48.6065 19.6941 50.4746 19.7065 52.1037 19.7065C52.1037 19.9832 52.0512 21.7231 51.5606 22.3543L51.5597 22.3561Z" fill="#202038"/>
<path d="M55.5591 22.975H60.896V24.7148H53.5461V15.2807H60.4472V17.0197H55.5591V19.1406H59.8766V20.9725H55.5591V22.975Z" fill="#202038"/>
<path d="M68.1312 21.2492L70.7797 24.7405H68.237L65.8543 21.3544H64.834V24.7405H62.7419V15.3205H67.0061C69.3906 15.3205 70.3051 16.8084 70.3051 18.337C70.3051 19.6163 69.6288 20.9062 68.0539 21.2492H68.133H68.1312ZM64.8322 16.9286V19.7604H66.448C67.4416 19.7604 68.2628 19.5376 68.2628 18.3379C68.2628 17.1382 67.4416 16.9286 66.448 16.9286H64.8322Z" fill="#202038"/>
<path d="M72.622 15.3205H75.3238L77.5084 19.4704L79.6547 15.3205H82.3964V24.7281H80.4501V18.0735H80.4234L78.3171 22.3561H76.7156L74.6217 18.1398H74.596V24.7281H72.6229L72.622 15.3205Z" fill="#202038"/>
<path d="M83.7944 24.7272L88.0871 15.3328H90.1792L94.4051 24.7272H92.3913L91.4643 22.6461H86.6829L85.6892 24.7272H83.7944ZM89.1598 17.0984L87.5689 20.7355H90.7089L89.1722 17.0984H89.1598Z" fill="#202038"/>
<path d="M97.4437 18.2327V24.7405H95.6289V15.2939H98.0134L102.238 21.1705V15.2939H104V24.7405H102.238L97.4437 18.2327Z" fill="#202038"/>
<path d="M47.3613 12.9104C44.6596 12.9104 42.4732 10.7364 42.4732 8.04791C42.4732 5.35938 44.6587 3.17301 47.3613 3.17301C50.064 3.17301 52.2619 5.347 52.2619 8.04791C52.2619 10.7488 50.0507 12.9104 47.3613 12.9104ZM44.4738 8.04791C44.4738 9.61629 45.7847 10.9203 47.3613 10.9203C48.938 10.9203 50.2222 9.61629 50.2222 8.04791C50.2222 6.47953 48.938 5.16311 47.3613 5.16311C45.7847 5.16311 44.4738 6.48041 44.4738 8.04791Z" fill="#202038"/>
<path d="M55.6524 6.29652V12.8043H53.8376V3.35779H56.2221L60.4463 9.23436V3.35779H62.2087V12.8043H60.4463L55.6524 6.29652Z" fill="#202038"/>
<path d="M64.2785 12.7256V3.34541H66.3173V10.9875H71.1654V12.7265L64.2785 12.7256Z" fill="#202038"/>
<path d="M72.7785 3.38431H74.8581V12.792H72.7785V3.38431Z" fill="#202038"/>
<path d="M78.7882 6.29652V12.8043H76.9733V3.35779H79.3578L83.582 9.23436V3.35779H85.3444V12.8043H83.582L78.7882 6.29652Z" fill="#202038"/>
<path d="M89.4042 11.0388H94.7411V12.7787H87.3912V3.34453H94.2923V5.08354H89.4042V7.20448H93.7217V9.03633H89.4042V11.0388Z" fill="#202038"/>
<path d="M44.7147 33.9616C44.9262 35.1993 46.0389 35.3717 46.8068 35.3717C47.5355 35.3717 48.6482 35.1604 48.6482 34.1985C48.6482 32.1961 43.0189 33.4877 43.0189 29.969C43.0189 28.032 44.8462 27.1231 46.5543 27.1231C48.5274 27.1231 50.3431 27.9789 50.3431 30.1538L48.3292 29.8629C48.0785 28.7702 47.1116 28.7304 46.4619 28.7304C45.8123 28.7304 45.0319 29.0071 45.0319 29.7975C45.0319 30.4959 45.4816 30.6533 47.8528 31.22C48.5549 31.3906 50.6612 31.8247 50.6612 33.9598C50.6612 35.6856 49.3103 36.9772 46.7277 36.9772C44.608 36.9772 42.7008 35.949 42.7008 33.6309L44.7147 33.9598V33.9616Z" fill="#202038"/>
<path d="M60.8889 36.7553H58.028L55.5644 34.1198L54.3326 35.8208V36.7562H52.213V27.3353H54.3326V32.6717L58.028 27.3353H60.6107L57.0468 32.6717L60.888 36.7571L60.8889 36.7553Z" fill="#202038"/>
<path d="M66.1582 36.8738C63.4565 36.8738 61.2701 34.6998 61.2701 32.0113C61.2701 29.3228 63.4556 27.1364 66.1582 27.1364C68.8609 27.1364 71.0588 29.3104 71.0588 32.0113C71.0588 34.7122 68.8476 36.8738 66.1582 36.8738ZM63.2707 32.0113C63.2707 33.5797 64.5816 34.8837 66.1582 34.8837C67.7349 34.8837 69.0191 33.5797 69.0191 32.0113C69.0191 30.4429 67.7349 29.1265 66.1582 29.1265C64.5816 29.1265 63.2707 30.4438 63.2707 32.0113Z" fill="#202038"/>
<path d="M77.0258 36.8738C74.324 36.8738 72.1377 34.6998 72.1377 32.0113C72.1377 29.3228 74.3231 27.1364 77.0258 27.1364C79.7284 27.1364 81.9263 29.3104 81.9263 32.0113C81.9263 34.7122 79.7151 36.8738 77.0258 36.8738ZM74.1383 32.0113C74.1383 33.5797 75.4491 34.8837 77.0258 34.8837C78.6024 34.8837 79.8866 33.5797 79.8866 32.0113C79.8866 30.4429 78.6024 29.1265 77.0258 29.1265C75.4491 29.1265 74.1383 30.4438 74.1383 32.0113Z" fill="#202038"/>
<path d="M83.5065 36.689V27.3088H85.5453V34.9509H90.3933V36.6899L83.5065 36.689Z" fill="#202038"/>
</svg>
